<?xml version="1.0" encoding="UTF-8" standalone="no"?>
<!DOCTYPE svg PUBLIC "-//W3C//DTD SVG 1.1//EN" "http://www.w3.org/Graphics/SVG/1.1/DTD/svg11.dtd">
<svg width="100%" height="100%" viewBox="0 0 434 434" version="1.1" xmlns="http://www.w3.org/2000/svg" xmlns:xlink="http://www.w3.org/1999/xlink" xml:space="preserve" xmlns:serif="http://www.serif.com/" style="fill-rule:evenodd;clip-rule:evenodd;stroke-linejoin:round;stroke-miterlimit:2;">
    <g transform="matrix(1,0,0,1,-35.863,-31.1323)">
        <g transform="matrix(0,-1,-1,0,252.587,86.077)">
            <path d="M-161.779,-161.781C-251.128,-161.781 -323.559,-89.349 -323.559,-0.001C-323.559,89.348 -251.128,161.779 -161.779,161.779C-72.431,161.779 -0.001,89.348 -0.001,-0.001C-0.001,-89.349 -72.431,-161.781 -161.779,-161.781" style="fill:rgb(242,231,213);fill-rule:nonzero;"/>
        </g>
        <g transform="matrix(1,0,0,1,252.587,442.911)">
            <path d="M0,-390.108C-26.329,-390.108 -51.874,-384.95 -75.926,-374.776C-99.154,-364.952 -120.013,-350.889 -137.924,-332.978C-155.834,-315.067 -169.897,-294.208 -179.722,-270.98C-189.896,-246.928 -195.054,-221.382 -195.054,-195.054C-195.054,-168.725 -189.896,-143.18 -179.722,-119.128C-169.897,-95.9 -155.834,-75.041 -137.924,-57.129C-120.013,-39.218 -99.154,-25.156 -75.926,-15.332C-51.874,-5.158 -26.329,0 0,0C26.329,0 51.874,-5.158 75.927,-15.332C99.154,-25.156 120.014,-39.218 137.925,-57.129C155.835,-75.041 169.898,-95.9 179.723,-119.128C189.896,-143.18 195.055,-168.725 195.055,-195.054C195.055,-221.382 189.896,-246.928 179.723,-270.98C169.898,-294.208 155.835,-315.067 137.925,-332.978C120.014,-350.889 99.154,-364.952 75.927,-374.776C51.874,-384.95 26.329,-390.108 0,-390.108M0,-382.108C103.308,-382.108 187.055,-298.36 187.055,-195.054C187.055,-91.747 103.308,-8 0,-8C-103.307,-8 -187.054,-91.747 -187.054,-195.054C-187.054,-298.36 -103.307,-382.108 0,-382.108" style="fill:rgb(242,231,213);fill-rule:nonzero;"/>
        </g>
        <g transform="matrix(1,0,0,1,240.863,421.791)">
            <path d="M0,-348.08C-0.11,-351.67 2.71,-354.67 6.3,-354.77C9.89,-354.88 12.88,-352.06 12.99,-348.46C13.089,-344.88 10.27,-341.88 6.679,-341.78C6.621,-341.77 6.55,-341.77 6.49,-341.77C2.99,-341.77 0.1,-344.56 0,-348.08M24.97,-341.34C21.39,-341.62 18.71,-344.74 18.99,-348.32C19.27,-351.9 22.39,-354.58 25.97,-354.3C29.55,-354.02 32.23,-350.89 31.95,-347.31C31.68,-343.91 28.83,-341.32 25.48,-341.32C25.31,-341.32 25.14,-341.32 24.97,-341.34M-18.86,-345.8C-19.35,-349.36 -16.87,-352.64 -13.31,-353.13C-9.76,-353.62 -6.48,-351.14 -5.98,-347.59C-5.49,-344.03 -7.97,-340.75 -11.53,-340.26C-11.83,-340.21 -12.13,-340.19 -12.43,-340.19C-15.63,-340.19 -18.41,-342.55 -18.86,-345.8M43.08,-338.93C39.55,-339.6 37.23,-343 37.9,-346.52C38.57,-350.05 41.97,-352.37 45.49,-351.7C49.02,-351.04 51.34,-347.64 50.669,-344.11C50.09,-340.99 47.36,-338.82 44.29,-338.82C43.9,-338.82 43.49,-338.85 43.08,-338.93M-37.36,-341.48C-38.24,-344.96 -36.13,-348.49 -32.65,-349.37C-29.17,-350.25 -25.63,-348.14 -24.75,-344.66C-23.88,-341.18 -25.99,-337.64 -29.47,-336.76C-30,-336.63 -30.54,-336.56 -31.06,-336.56C-33.97,-336.57 -36.62,-338.53 -37.36,-341.48M60.82,-334.56C57.39,-335.61 55.459,-339.24 56.51,-342.67C57.55,-346.11 61.19,-348.04 64.62,-346.99C68.05,-345.95 69.99,-342.31 68.94,-338.88C68.08,-336.08 65.51,-334.28 62.72,-334.28C62.09,-334.28 61.459,-334.37 60.82,-334.56M-55.28,-335.15C-56.53,-338.52 -54.82,-342.26 -51.45,-343.51C-48.09,-344.77 -44.35,-343.06 -43.09,-339.69C-41.84,-336.33 -43.55,-332.59 -46.91,-331.33C-47.66,-331.05 -48.43,-330.92 -49.18,-330.92C-51.82,-330.92 -54.3,-332.54 -55.28,-335.15M77.99,-328.27C74.69,-329.69 73.169,-333.51 74.58,-336.81C76,-340.11 79.82,-341.63 83.12,-340.22C86.419,-338.8 87.94,-334.97 86.53,-331.68C85.47,-329.22 83.07,-327.74 80.55,-327.74C79.7,-327.74 78.82,-327.91 77.99,-328.27M-72.39,-326.9C-74.01,-330.11 -72.71,-334.02 -69.51,-335.63C-66.3,-337.25 -62.39,-335.95 -60.78,-332.75C-59.16,-329.54 -60.46,-325.63 -63.66,-324.02C-64.6,-323.55 -65.6,-323.33 -66.58,-323.33C-68.96,-323.33 -71.25,-324.63 -72.39,-326.9M94.36,-320.14C91.24,-321.91 90.14,-325.88 91.91,-329C93.68,-332.13 97.64,-333.23 100.77,-331.46C103.89,-329.69 104.99,-325.72 103.22,-322.6C102.02,-320.48 99.82,-319.3 97.56,-319.3C96.47,-319.3 95.37,-319.57 94.36,-320.14M-88.5,-316.84C-90.46,-319.86 -89.6,-323.88 -86.59,-325.84C-83.57,-327.79 -79.55,-326.93 -77.6,-323.92C-75.64,-320.91 -76.5,-316.88 -79.51,-314.93C-80.6,-314.22 -81.83,-313.88 -83.04,-313.88C-85.17,-313.88 -87.26,-314.93 -88.5,-316.84M109.75,-310.28C106.84,-312.38 106.18,-316.44 108.28,-319.35C110.38,-322.27 114.44,-322.93 117.35,-320.83C120.26,-318.73 120.93,-314.67 118.83,-311.76C117.56,-309.99 115.57,-309.05 113.55,-309.06C112.23,-309.06 110.9,-309.45 109.75,-310.28M-103.43,-305.1C-105.7,-307.88 -105.28,-311.98 -102.5,-314.24C-99.72,-316.51 -95.62,-316.09 -93.35,-313.31C-91.09,-310.53 -91.5,-306.43 -94.29,-304.17C-95.49,-303.18 -96.94,-302.7 -98.39,-302.7C-100.27,-302.7 -102.15,-303.52 -103.43,-305.1M123.99,-298.81C121.32,-301.21 121.1,-305.32 123.51,-307.99C125.91,-310.65 130.02,-310.87 132.68,-308.47C135.35,-306.07 135.57,-301.96 133.169,-299.29C131.89,-297.86 130.11,-297.14 128.33,-297.14C126.79,-297.14 125.23,-297.69 123.99,-298.81M-117,-291.8C-119.56,-294.32 -119.59,-298.44 -117.06,-301C-114.54,-303.55 -110.43,-303.58 -107.87,-301.06C-105.32,-298.54 -105.29,-294.42 -107.81,-291.87C-109.08,-290.58 -110.76,-289.93 -112.44,-289.93C-114.09,-289.93 -115.74,-290.55 -117,-291.8M136.9,-285.86C134.5,-288.54 134.73,-292.65 137.41,-295.04C140.09,-297.43 144.19,-297.21 146.59,-294.53C148.98,-291.85 148.75,-287.75 146.08,-285.35C144.84,-284.24 143.29,-283.7 141.75,-283.7C139.959,-283.7 138.18,-284.43 136.9,-285.86M-129.06,-277.12C-131.87,-279.35 -132.35,-283.44 -130.12,-286.25C-127.89,-289.06 -123.8,-289.54 -120.98,-287.31C-118.17,-285.08 -117.7,-280.99 -119.93,-278.17C-121.21,-276.56 -123.11,-275.71 -125.03,-275.71C-126.44,-275.71 -127.87,-276.17 -129.06,-277.12M148.34,-271.6C146.25,-274.52 146.919,-278.58 149.83,-280.67C152.75,-282.76 156.81,-282.09 158.9,-279.17C160.99,-276.25 160.32,-272.19 157.41,-270.1C156.26,-269.28 154.94,-268.88 153.62,-268.88C151.6,-268.88 149.6,-269.83 148.34,-271.6M-139.46,-261.21C-142.5,-263.13 -143.41,-267.14 -141.5,-270.18C-139.59,-273.22 -135.57,-274.13 -132.53,-272.22C-129.5,-270.3 -128.58,-266.29 -130.5,-263.25C-131.73,-261.29 -133.84,-260.21 -136,-260.21C-137.19,-260.21 -138.38,-260.54 -139.46,-261.21M158.15,-256.19L158.15,-256.18C156.39,-259.31 157.5,-263.28 160.63,-265.04C163.76,-266.8 167.72,-265.69 169.48,-262.56C171.24,-259.43 170.13,-255.47 167.01,-253.71C166,-253.14 164.9,-252.87 163.82,-252.87C161.55,-252.87 159.35,-254.06 158.15,-256.19M-148.06,-244.27C-151.29,-245.84 -152.64,-249.73 -151.07,-252.96C-149.5,-256.19 -145.61,-257.53 -142.38,-255.96C-139.15,-254.39 -137.81,-250.5 -139.38,-247.27C-140.5,-244.96 -142.82,-243.61 -145.23,-243.61C-146.18,-243.61 -147.15,-243.82 -148.06,-244.27M166.23,-239.8C164.82,-243.1 166.36,-246.92 169.66,-248.33C172.959,-249.74 176.78,-248.21 178.19,-244.9C179.6,-241.6 178.07,-237.78 174.76,-236.37C173.93,-236.02 173.07,-235.85 172.209,-235.85C169.69,-235.85 167.29,-237.33 166.23,-239.8M-154.77,-226.48C-158.15,-227.69 -159.91,-231.41 -158.7,-234.79C-157.49,-238.17 -153.77,-239.94 -150.39,-238.73C-147.01,-237.52 -145.25,-233.8 -146.46,-230.42C-147.41,-227.76 -149.91,-226.1 -152.58,-226.1C-153.31,-226.1 -154.04,-226.23 -154.77,-226.48M172.47,-222.62C171.44,-226.06 173.38,-229.69 176.81,-230.73C180.25,-231.77 183.88,-229.83 184.919,-226.39C185.959,-222.95 184.02,-219.33 180.58,-218.29C179.95,-218.1 179.32,-218.01 178.7,-218.01C175.9,-218.01 173.32,-219.82 172.47,-222.62M-159.48,-208.07C-162.97,-208.9 -165.13,-212.41 -164.3,-215.9C-163.47,-219.39 -159.97,-221.55 -156.47,-220.72C-152.98,-219.89 -150.82,-216.39 -151.65,-212.9C-152.36,-209.91 -155.03,-207.89 -157.97,-207.9C-158.47,-207.9 -158.97,-207.95 -159.48,-208.07M176.8,-204.87C176.14,-208.4 178.47,-211.8 182,-212.45C185.53,-213.11 188.919,-210.78 189.58,-207.25C190.24,-203.72 187.91,-200.33 184.38,-199.67C183.98,-199.6 183.58,-199.56 183.18,-199.56C180.11,-199.56 177.38,-201.74 176.8,-204.87M-162.15,-189.26C-165.71,-189.71 -168.24,-192.96 -167.8,-196.52C-167.35,-200.08 -164.11,-202.61 -160.54,-202.16C-156.98,-201.72 -154.45,-198.47 -154.9,-194.91C-155.31,-191.62 -158.11,-189.21 -161.34,-189.21C-161.61,-189.21 -161.88,-189.23 -162.15,-189.26M179.16,-186.75C178.89,-190.33 181.57,-193.45 185.15,-193.72C188.73,-193.99 191.85,-191.31 192.12,-187.73C192.39,-184.15 189.709,-181.03 186.13,-180.76C185.959,-180.74 185.8,-180.74 185.63,-180.74C182.27,-180.74 179.419,-183.34 179.16,-186.75M-162.77,-170.28C-166.36,-170.34 -169.23,-173.29 -169.17,-176.88C-169.11,-180.471 -166.15,-183.34 -162.57,-183.28C-158.98,-183.22 -156.11,-180.26 -156.17,-176.681C-156.23,-173.12 -159.13,-170.28 -162.67,-170.28L-162.77,-170.28ZM179.64,-173.931C179.64,-177.52 182.55,-180.44 186.14,-180.44C189.73,-180.44 192.64,-177.52 192.64,-173.931C192.64,-170.34 189.73,-167.431 186.14,-167.431C182.55,-167.431 179.64,-170.34 179.64,-173.931M-168.43,-157.21C-168.76,-160.79 -166.13,-163.95 -162.55,-164.28C-158.98,-164.61 -155.81,-161.98 -155.48,-158.4C-155.16,-154.83 -157.79,-151.66 -161.36,-151.33C-161.57,-151.32 -161.77,-151.31 -161.96,-151.31C-165.29,-151.31 -168.12,-153.84 -168.43,-157.21M184.43,-148.52C180.85,-148.9 178.28,-152.11 178.66,-155.681C179.05,-159.25 182.25,-161.83 185.82,-161.44C189.39,-161.06 191.97,-157.85 191.59,-154.28C191.23,-150.95 188.41,-148.48 185.13,-148.48C184.9,-148.48 184.66,-148.49 184.43,-148.52M-165.57,-137.73C-166.28,-141.25 -164.01,-144.681 -160.49,-145.391C-156.97,-146.11 -153.54,-143.84 -152.83,-140.32C-152.12,-136.8 -154.39,-133.37 -157.91,-132.65C-158.34,-132.57 -158.78,-132.52 -159.21,-132.52C-162.23,-132.52 -164.94,-134.65 -165.57,-137.73M180.66,-129.9C177.15,-130.67 174.94,-134.141 175.709,-137.641C176.48,-141.15 179.95,-143.36 183.459,-142.59C186.959,-141.82 189.18,-138.35 188.41,-134.85C187.74,-131.81 185.05,-129.74 182.06,-129.74C181.6,-129.74 181.13,-129.79 180.66,-129.9M-160.6,-118.67C-161.69,-122.09 -159.81,-125.75 -156.39,-126.85C-152.97,-127.94 -149.31,-126.06 -148.22,-122.641C-147.12,-119.221 -149,-115.56 -152.42,-114.471C-153.08,-114.25 -153.75,-114.15 -154.41,-114.15C-157.16,-114.15 -159.71,-115.91 -160.6,-118.67M174.88,-111.79C171.48,-112.94 169.65,-116.63 170.8,-120.03C171.95,-123.431 175.65,-125.26 179.05,-124.1C182.45,-122.95 184.27,-119.26 183.12,-115.86C182.2,-113.15 179.669,-111.45 176.959,-111.45C176.27,-111.45 175.57,-111.56 174.88,-111.79M-153.56,-100.27C-155.03,-103.55 -153.56,-107.391 -150.28,-108.85C-147,-110.32 -143.15,-108.85 -141.69,-105.57C-140.23,-102.29 -141.7,-98.45 -144.98,-96.98C-145.84,-96.6 -146.74,-96.42 -147.63,-96.42C-150.11,-96.42 -152.49,-97.85 -153.56,-100.27M167.15,-94.431C163.89,-95.95 162.48,-99.82 164,-103.07C165.52,-106.32 169.39,-107.73 172.64,-106.21C175.89,-104.7 177.3,-100.83 175.78,-97.57C174.68,-95.21 172.33,-93.82 169.89,-93.82C168.97,-93.82 168.03,-94.02 167.15,-94.431M-144.57,-82.76C-146.38,-85.86 -145.34,-89.84 -142.24,-91.65C-139.14,-93.46 -135.16,-92.42 -133.35,-89.32C-131.53,-86.221 -132.58,-82.24 -135.68,-80.431C-136.71,-79.82 -137.84,-79.54 -138.95,-79.54C-141.19,-79.54 -143.36,-80.69 -144.57,-82.76M157.57,-78.02C154.5,-79.88 153.52,-83.88 155.38,-86.95C157.24,-90.02 161.24,-91 164.31,-89.13C167.38,-87.27 168.36,-83.27 166.5,-80.2C165.27,-78.19 163.13,-77.07 160.93,-77.07C159.78,-77.07 158.62,-77.38 157.57,-78.02M-133.72,-66.32C-135.86,-69.21 -135.25,-73.28 -132.37,-75.42C-129.49,-77.56 -125.42,-76.95 -123.28,-74.06C-121.14,-71.181 -121.75,-67.11 -124.63,-64.971C-125.8,-64.11 -127.15,-63.69 -128.5,-63.69C-130.49,-63.69 -132.45,-64.601 -133.72,-66.32M146.26,-62.74C143.41,-64.931 142.87,-69.01 145.06,-71.851C147.24,-74.7 151.32,-75.24 154.169,-73.06C157.02,-70.87 157.56,-66.79 155.38,-63.94C154.1,-62.27 152.169,-61.4 150.22,-61.4C148.84,-61.4 147.44,-61.84 146.26,-62.74M-121.16,-51.16C-123.6,-53.8 -123.44,-57.91 -120.8,-60.351C-118.16,-62.79 -114.05,-62.63 -111.61,-59.99C-109.18,-57.351 -109.34,-53.24 -111.98,-50.8C-113.23,-49.65 -114.81,-49.08 -116.39,-49.08C-118.14,-49.08 -119.88,-49.78 -121.16,-51.16M133.38,-48.78C130.78,-51.26 130.69,-55.37 133.169,-57.971C135.65,-60.57 139.76,-60.66 142.36,-58.181C144.95,-55.7 145.05,-51.59 142.57,-48.99C141.29,-47.65 139.58,-46.98 137.87,-46.98C136.25,-46.98 134.64,-47.58 133.38,-48.78M-107.03,-37.45C-109.74,-39.81 -110.02,-43.91 -107.67,-46.62C-105.31,-49.33 -101.21,-49.61 -98.5,-47.25C-95.79,-44.891 -95.5,-40.79 -97.86,-38.08C-99.15,-36.61 -100.95,-35.851 -102.77,-35.851C-104.28,-35.851 -105.8,-36.38 -107.03,-37.45M119.06,-36.29C116.74,-39.04 117.1,-43.141 119.84,-45.45C122.59,-47.76 126.69,-47.41 129,-44.67C131.31,-41.92 130.959,-37.82 128.22,-35.51C127,-34.48 125.51,-33.98 124.03,-33.98C122.18,-33.98 120.34,-34.77 119.06,-36.29M-91.5,-25.34C-94.45,-27.391 -95.18,-31.44 -93.13,-34.391C-91.08,-37.33 -87.02,-38.06 -84.08,-36.01C-81.13,-33.96 -80.41,-29.91 -82.46,-26.96C-83.72,-25.141 -85.74,-24.17 -87.8,-24.17C-89.08,-24.17 -90.37,-24.55 -91.5,-25.34M103.47,-25.431C101.47,-28.41 102.26,-32.45 105.24,-34.45C108.22,-36.45 112.26,-35.66 114.26,-32.681C116.27,-29.7 115.47,-25.66 112.49,-23.66C111.38,-22.91 110.12,-22.55 108.87,-22.55C106.78,-22.55 104.73,-23.56 103.47,-25.431M-74.75,-14.98C-77.9,-16.7 -79.06,-20.65 -77.35,-23.8C-75.63,-26.95 -71.68,-28.11 -68.53,-26.4C-65.38,-24.681 -64.21,-20.73 -65.93,-17.58C-67.11,-15.42 -69.34,-14.19 -71.64,-14.19C-72.69,-14.19 -73.76,-14.45 -74.75,-14.98M86.8,-16.32C85.14,-19.5 86.36,-23.431 89.54,-25.101C92.72,-26.77 96.65,-25.54 98.32,-22.36C99.98,-19.181 98.76,-15.25 95.58,-13.58C94.61,-13.08 93.58,-12.84 92.57,-12.84C90.23,-12.84 87.959,-14.11 86.8,-16.32M-56.96,-6.51C-60.28,-7.88 -61.87,-11.67 -60.5,-14.99C-59.14,-18.32 -55.34,-19.9 -52.02,-18.54C-48.7,-17.17 -47.11,-13.38 -48.48,-10.06C-49.51,-7.54 -51.94,-6.02 -54.5,-6.02C-55.32,-6.02 -56.15,-6.181 -56.96,-6.51M69.23,-9.09C67.919,-12.44 69.57,-16.21 72.919,-17.51C76.26,-18.82 80.03,-17.181 81.34,-13.83C82.65,-10.49 81,-6.721 77.66,-5.41C76.88,-5.11 76.08,-4.96 75.29,-4.96C72.69,-4.96 70.24,-6.53 69.23,-9.09M-38.35,-0.04C-41.8,-1.03 -43.79,-4.63 -42.8,-8.08C-41.81,-11.53 -38.21,-13.52 -34.76,-12.53C-31.31,-11.54 -29.31,-7.94 -30.31,-4.49C-31.13,-1.641 -33.73,0.22 -36.55,0.22C-37.15,0.22 -37.75,0.13 -38.35,-0.04M50.98,-3.83C50.04,-7.29 52.1,-10.86 55.56,-11.8C59.03,-12.73 62.59,-10.681 63.53,-7.21C64.459,-3.75 62.41,-0.181 58.95,0.76C58.38,0.91 57.81,0.98 57.25,0.98C54.39,0.98 51.76,-0.931 50.98,-3.83M-19.15,4.359C-22.69,3.75 -25.06,0.39 -24.45,-3.15C-23.85,-6.69 -20.48,-9.06 -16.95,-8.45C-13.41,-7.851 -11.03,-4.48 -11.64,-0.95C-12.19,2.22 -14.93,4.45 -18.04,4.45C-18.41,4.45 -18.78,4.42 -19.15,4.359M32.26,-0.59C31.709,-4.141 34.14,-7.46 37.69,-8.01C41.23,-8.56 44.55,-6.13 45.1,-2.59C45.66,0.96 43.23,4.279 39.68,4.83C39.34,4.89 39.01,4.91 38.669,4.91C35.53,4.91 32.76,2.62 32.26,-0.59M0.41,6.64L0.41,6.63C-3.17,6.41 -5.9,3.33 -5.68,-0.25C-5.46,-3.84 -2.37,-6.56 1.21,-6.34C4.791,-6.12 7.52,-3.04 7.3,0.55C7.08,3.99 4.22,6.649 0.81,6.649C0.68,6.649 0.55,6.64 0.41,6.64M13.3,0.59C13.14,-2.99 15.91,-6.03 19.5,-6.19C23.08,-6.36 26.121,-3.58 26.291,0C26.45,3.59 23.679,6.63 20.089,6.79C19.99,6.8 19.89,6.8 19.791,6.8C16.339,6.8 13.46,4.08 13.3,0.59" style="fill:rgb(242,231,213);fill-rule:nonzero;"/>
        </g>
        <g transform="matrix(1,0,0,1,252.587,464.581)">
            <path d="M0,-433.449C-119.693,-433.449 -216.724,-336.417 -216.724,-216.725C-216.724,-97.031 -119.693,0 0,0C119.694,0 216.726,-97.031 216.726,-216.725C216.726,-336.417 119.694,-433.449 0,-433.449M0,-418.449C27.239,-418.449 53.656,-413.117 78.517,-402.602C102.536,-392.443 124.11,-377.896 142.642,-359.365C161.173,-340.834 175.72,-319.259 185.879,-295.24C196.395,-270.38 201.726,-243.964 201.726,-216.725C201.726,-189.486 196.394,-163.069 185.879,-138.209C175.72,-114.19 161.173,-92.615 142.642,-74.084C124.11,-55.553 102.536,-41.006 78.517,-30.847C53.656,-20.331 27.239,-15 0,-15C-27.239,-15 -53.656,-20.331 -78.516,-30.847C-102.535,-41.006 -124.11,-55.553 -142.641,-74.084C-161.171,-92.615 -175.718,-114.19 -185.878,-138.209C-196.393,-163.069 -201.724,-189.486 -201.724,-216.725C-201.724,-243.964 -196.393,-270.38 -185.878,-295.24C-175.718,-319.26 -161.171,-340.834 -142.641,-359.365C-124.109,-377.896 -102.535,-392.443 -78.516,-402.602C-53.656,-413.117 -27.239,-418.449 0,-418.449" style="fill:rgb(242,231,213);fill-rule:nonzero;"/>
        </g>
    </g>
</svg>
