<?xml version="1.0" encoding="UTF-8" standalone="no"?>
<!DOCTYPE svg PUBLIC "-//W3C//DTD SVG 1.1//EN" "http://www.w3.org/Graphics/SVG/1.1/DTD/svg11.dtd">
<svg width="100%" height="100%" viewBox="0 0 143 143" version="1.1" xmlns="http://www.w3.org/2000/svg" xmlns:xlink="http://www.w3.org/1999/xlink" xml:space="preserve" xmlns:serif="http://www.serif.com/" style="fill-rule:evenodd;clip-rule:evenodd;stroke-linejoin:round;stroke-miterlimit:2;">
    <g transform="matrix(1,0,0,1,-31.5348,-261.156)">
        <g transform="matrix(1,0,0,1,143.457,328.565)">
            <path d="M0,7.307C-1.58,5.849 -3.36,4.613 -5.277,3.656C-0.423,1.225 3.477,-3.045 5.765,-7.983C6.778,-10.172 7.488,-12.49 7.859,-14.864C9.084,-13.702 10.211,-12.425 11.251,-11.047C13.644,-7.878 15.691,-4.423 18.414,-1.514C20.476,0.689 22.987,2.598 25.818,3.63C19.758,5.772 15.821,12.032 12.179,17.094C10.853,18.937 9.433,20.668 7.825,22.205C6.955,16.559 4.251,11.231 0,7.307M-44.513,44.513C-43.055,42.933 -41.819,41.153 -40.862,39.236C-38.431,44.09 -34.162,47.991 -29.223,50.278C-27.035,51.291 -24.716,52.001 -22.342,52.372C-23.505,53.597 -24.781,54.725 -26.16,55.765C-29.329,58.157 -32.782,60.204 -35.691,62.927C-37.896,64.989 -39.805,67.5 -40.836,70.331C-42.979,64.272 -49.238,60.334 -54.301,56.692C-56.144,55.367 -57.875,53.946 -59.411,52.338C-53.765,51.468 -48.437,48.765 -44.513,44.513M-81.719,-0C-80.14,1.458 -78.359,2.694 -76.442,3.652C-81.296,6.082 -85.197,10.352 -87.484,15.29C-88.498,17.479 -89.208,19.797 -89.579,22.171C-90.804,21.008 -91.931,19.733 -92.971,18.354C-95.363,15.185 -97.411,11.731 -100.133,8.822C-102.195,6.618 -104.706,4.708 -107.538,3.677C-101.478,1.536 -97.541,-4.724 -93.898,-9.788C-92.573,-11.63 -91.152,-13.361 -89.545,-14.898C-88.674,-9.252 -85.971,-3.923 -81.719,-0M-37.207,-37.206C-38.665,-35.627 -39.9,-33.845 -40.858,-31.928C-43.289,-36.783 -47.558,-40.683 -52.497,-42.97C-54.685,-43.984 -57.004,-44.695 -59.377,-45.065C-58.215,-46.291 -56.938,-47.418 -55.56,-48.458C-52.391,-50.849 -48.938,-52.897 -46.028,-55.62C-43.824,-57.681 -41.915,-60.193 -40.883,-63.024C-38.741,-56.964 -32.482,-53.027 -27.419,-49.385C-25.576,-48.059 -23.845,-46.638 -22.309,-45.031C-27.955,-44.161 -33.283,-41.458 -37.207,-37.206M3.696,25.378C0.267,27.407 -3.659,28.598 -7.636,28.834C-10.513,29.005 -13.407,28.633 -16.111,27.698C-16.628,26.396 -17.276,25.147 -18.056,23.974C-14.161,19.574 -11.566,14.029 -10.712,8.216C-10.577,7.291 -10.498,6.362 -10.447,5.43C-9.031,5.152 -7.667,4.72 -6.363,4.158C-1.102,6.722 2.993,11.523 5.106,16.992C5.904,19.058 6.378,21.17 6.584,23.316C5.685,24.068 4.732,24.765 3.696,25.378M-35.996,44.185C-37.784,42.437 -39.27,40.402 -40.355,38.169C-39.811,36.91 -39.402,35.592 -39.124,34.241C-37.768,34.163 -36.411,34.011 -35.06,33.744C-29.658,32.676 -24.614,30.132 -20.52,26.472C-19.345,27.251 -18.106,27.898 -16.819,28.409C-14.761,34.385 -15.517,41.237 -18.397,46.868C-19.185,48.406 -20.136,49.802 -21.208,51.094C-22.868,50.943 -24.52,50.631 -26.161,50.103C-29.826,48.922 -33.241,46.877 -35.996,44.185M-66.041,36.877C-66.211,34 -65.839,31.107 -64.903,28.403C-63.66,27.909 -62.468,27.292 -61.34,26.559C-56.154,31.111 -49.502,33.845 -42.597,34.244C-42.318,35.596 -41.903,36.902 -41.364,38.15C-43.929,43.411 -48.729,47.507 -54.198,49.619C-56.264,50.417 -58.377,50.892 -60.522,51.097C-61.274,50.199 -61.971,49.245 -62.584,48.209C-64.613,44.78 -65.805,40.855 -66.041,36.877M-81.391,8.518C-79.644,6.73 -77.607,5.244 -75.375,4.158C-74.18,4.674 -72.933,5.066 -71.654,5.344C-71.365,10.317 -69.848,15.215 -67.276,19.482C-66.261,21.167 -65.075,22.714 -63.774,24.144C-64.509,25.275 -65.125,26.461 -65.615,27.695C-71.592,29.752 -78.442,28.997 -84.073,26.116C-85.612,25.328 -87.008,24.377 -88.3,23.306C-88.149,21.645 -87.838,19.995 -87.309,18.353C-86.128,14.687 -84.084,11.273 -81.391,8.518M-85.416,-18.071C-81.986,-20.099 -78.061,-21.291 -74.083,-21.527C-71.207,-21.698 -68.313,-21.326 -65.609,-20.39C-65.119,-19.157 -64.508,-17.973 -63.782,-16.853C-64.114,-16.486 -64.453,-16.126 -64.768,-15.739C-68.703,-10.912 -71.127,-4.906 -71.629,1.304C-71.647,1.523 -71.643,1.743 -71.655,1.961C-72.935,2.239 -74.171,2.638 -75.356,3.15C-80.618,0.585 -84.713,-4.215 -86.826,-9.684C-87.624,-11.751 -88.098,-13.864 -88.304,-16.008C-87.404,-16.76 -86.452,-17.458 -85.416,-18.071M-45.724,-36.878C-43.936,-35.131 -42.45,-33.094 -41.364,-30.862C-41.91,-29.597 -42.321,-28.276 -42.599,-26.92C-49.464,-26.527 -56.146,-23.861 -61.362,-19.268C-62.489,-20 -63.672,-20.614 -64.9,-21.101C-66.958,-27.078 -66.203,-33.929 -63.322,-39.56C-62.535,-41.098 -61.584,-42.495 -60.512,-43.787C-58.852,-43.635 -57.2,-43.325 -55.559,-42.796C-51.894,-41.615 -48.479,-39.57 -45.724,-36.878M-15.679,-29.57C-15.508,-26.693 -15.88,-23.799 -16.816,-21.095C-18.112,-20.581 -19.354,-19.936 -20.522,-19.161C-23.472,-21.803 -26.922,-23.875 -30.671,-25.221C-33.42,-26.21 -36.266,-26.75 -39.117,-26.91C-39.396,-28.272 -39.813,-29.586 -40.355,-30.843C-37.791,-36.104 -32.991,-40.2 -27.522,-42.312C-25.456,-43.111 -23.343,-43.585 -21.198,-43.791C-20.446,-42.891 -19.749,-41.938 -19.136,-40.902C-17.106,-37.472 -15.915,-33.547 -15.679,-29.57M-0.329,-1.211C-2.076,0.578 -4.112,2.063 -6.345,3.149C-7.66,2.58 -9.036,2.156 -10.451,1.878C-10.769,-3.844 -12.7,-9.453 -16.02,-14.132C-16.648,-15.019 -17.339,-15.853 -18.056,-16.664C-17.271,-17.845 -16.619,-19.091 -16.104,-20.387C-10.128,-22.445 -3.277,-21.69 2.354,-18.808C3.893,-18.021 5.289,-17.071 6.581,-15.999C6.429,-14.339 6.118,-12.687 5.589,-11.046C4.409,-7.381 2.364,-3.965 -0.329,-1.211M-74.237,3.654C-73.41,3.312 -72.56,3.029 -71.688,2.803C-71.705,3.371 -71.706,3.939 -71.688,4.507C-72.562,4.281 -73.412,3.994 -74.237,3.654M-10.419,4.602C-10.411,4.286 -10.386,3.97 -10.388,3.654C-10.386,3.336 -10.413,3.021 -10.421,2.703C-9.411,2.943 -8.43,3.262 -7.483,3.654C-8.433,4.045 -9.413,4.363 -10.419,4.602M-18.617,-17.286C-19.039,-17.735 -19.476,-18.168 -19.923,-18.59C-19.063,-19.115 -18.172,-19.567 -17.254,-19.947C-17.637,-19.029 -18.095,-18.141 -18.617,-17.286M-39.957,-26.966C-40.562,-26.984 -41.166,-26.968 -41.77,-26.95C-41.535,-27.903 -41.23,-28.828 -40.859,-29.723C-40.491,-28.831 -40.19,-27.91 -39.957,-26.966M-61.975,-18.694C-62.398,-18.298 -62.823,-17.904 -63.225,-17.483C-63.698,-18.281 -64.109,-19.105 -64.46,-19.952C-63.604,-19.595 -62.777,-19.172 -61.975,-18.694M-63.206,24.766C-62.799,25.189 -62.376,25.592 -61.948,25.989C-62.761,26.475 -63.601,26.896 -64.465,27.254C-64.109,26.398 -63.684,25.569 -63.206,24.766M-41.76,34.284C-41.161,34.301 -40.56,34.307 -39.958,34.288C-40.192,35.231 -40.494,36.145 -40.86,37.031C-41.227,36.141 -41.527,35.224 -41.76,34.284M-16.581,20.606C-20.081,25.602 -25.16,29.426 -30.91,31.453C-36.604,33.459 -42.836,33.687 -48.652,32.055C-54.451,30.428 -59.671,27.038 -63.499,22.386C-71.294,12.912 -72.269,-0.879 -66.05,-11.418C-59.797,-22.016 -47.093,-27.691 -35.024,-25.276C-29.054,-24.082 -23.552,-21.058 -19.343,-16.662C-15.223,-12.357 -12.499,-6.779 -11.542,-0.904C-11.297,0.603 -11.183,2.127 -11.175,3.654C-11.203,9.697 -13.114,15.657 -16.581,20.606M-19.919,25.898C-19.592,25.589 -19.257,25.288 -18.943,24.965C-18.828,24.846 -18.726,24.716 -18.612,24.595C-18.089,25.453 -17.639,26.343 -17.259,27.259C-18.177,26.877 -19.063,26.419 -19.919,25.898M4.705,-36.243C4.573,-31.937 5.642,-27.721 6.284,-23.492C6.579,-21.545 6.725,-19.613 6.677,-17.694C5.489,-18.573 4.221,-19.351 2.867,-20.011C-0.647,-21.725 -4.562,-22.681 -8.477,-22.674C-10.929,-22.67 -13.377,-22.274 -15.697,-21.499C-13.849,-27.049 -14.307,-33.313 -16.584,-38.721C-17.361,-40.568 -18.347,-42.298 -19.519,-43.893C-18.174,-43.933 -16.819,-43.881 -15.456,-43.724C-11.153,-43.228 -6.93,-42.054 -2.587,-41.913C0.442,-41.814 3.583,-42.246 6.322,-43.534C5.261,-41.279 4.781,-38.751 4.705,-36.243M-88.237,-21.751C-87.742,-26.053 -86.568,-30.276 -86.426,-34.619C-86.327,-37.648 -86.759,-40.789 -88.047,-43.528C-85.792,-42.467 -83.264,-41.988 -80.756,-41.911C-76.45,-41.78 -72.235,-42.848 -68.006,-43.49C-66.058,-43.786 -64.126,-43.931 -62.207,-43.883C-63.086,-42.696 -63.864,-41.427 -64.525,-40.073C-66.239,-36.559 -67.194,-32.645 -67.188,-28.73C-67.183,-26.277 -66.787,-23.829 -66.012,-21.509C-71.563,-23.358 -77.827,-22.899 -83.235,-20.623C-85.081,-19.845 -86.812,-18.859 -88.407,-17.688C-88.447,-19.032 -88.394,-20.386 -88.237,-21.751M-86.424,43.55C-86.293,39.244 -87.361,35.029 -88.003,30.799C-88.299,28.852 -88.445,26.92 -88.396,25C-87.209,25.88 -85.941,26.658 -84.586,27.319C-81.072,29.033 -77.158,29.989 -73.243,29.982C-70.791,29.977 -68.342,29.58 -66.023,28.806C-67.871,34.357 -67.413,40.62 -65.136,46.029C-64.358,47.875 -63.373,49.606 -62.201,51.201C-63.545,51.241 -64.9,51.188 -66.264,51.031C-70.566,50.536 -74.79,49.362 -79.132,49.22C-82.162,49.121 -85.302,49.552 -88.041,50.841C-86.981,48.586 -86.501,46.058 -86.424,43.55M6.518,29.058C6.022,33.36 4.849,37.583 4.707,41.926C4.608,44.955 5.039,48.096 6.328,50.835C4.073,49.775 1.545,49.295 -0.963,49.218C-5.27,49.087 -9.485,50.155 -13.714,50.797C-15.662,51.092 -17.593,51.239 -19.513,51.19C-18.633,50.002 -17.855,48.735 -17.195,47.38C-15.481,43.866 -14.525,39.953 -14.532,36.037C-14.537,33.584 -14.933,31.136 -15.708,28.817C-10.157,30.665 -3.893,30.206 1.516,27.929C3.362,27.152 5.092,26.166 6.687,24.995C6.728,26.339 6.675,27.694 6.518,29.058M29.945,2.897C29.937,2.893 29.929,2.894 29.921,2.891C29.885,2.879 29.849,2.868 29.809,2.867C25.529,2.736 21.863,0.051 19.092,-3.015C16.409,-5.984 14.376,-9.464 11.896,-12.592C10.737,-14.054 9.46,-15.388 8.066,-16.58C8.145,-17.513 8.174,-18.453 8.144,-19.393C8,-23.806 6.819,-28.093 6.368,-32.472C5.896,-37.049 6.36,-42.254 9.667,-45.76C9.696,-45.791 9.715,-45.827 9.733,-45.863C9.735,-45.868 9.74,-45.872 9.742,-45.877C9.806,-46.022 9.787,-46.197 9.667,-46.317C9.482,-46.503 9.296,-46.688 9.111,-46.874C8.992,-46.993 8.816,-47.012 8.671,-46.948C8.665,-46.946 8.66,-46.94 8.654,-46.937C8.619,-46.92 8.583,-46.901 8.554,-46.874C5.49,-43.988 1.085,-43.269 -2.978,-43.445C-7.393,-43.635 -11.685,-44.855 -16.079,-45.244C-17.583,-45.378 -19.093,-45.374 -20.588,-45.244C-21.456,-46.27 -22.401,-47.236 -23.429,-48.123C-26.443,-50.722 -29.886,-52.754 -32.974,-55.257C-36.562,-58.167 -39.928,-62.18 -40.072,-67.015C-40.074,-67.057 -40.086,-67.096 -40.099,-67.135C-40.101,-67.14 -40.101,-67.145 -40.103,-67.15C-40.16,-67.298 -40.297,-67.409 -40.466,-67.409L-41.253,-67.409C-41.422,-67.409 -41.56,-67.299 -41.617,-67.151C-41.62,-67.144 -41.619,-67.135 -41.622,-67.129C-41.634,-67.091 -41.646,-67.054 -41.647,-67.015C-41.778,-62.735 -44.462,-59.069 -47.529,-56.298C-50.498,-53.616 -53.978,-51.583 -57.106,-49.102C-58.568,-47.943 -59.902,-46.667 -61.093,-45.272C-62.027,-45.351 -62.966,-45.381 -63.907,-45.35C-68.319,-45.207 -72.607,-44.025 -76.985,-43.574C-81.563,-43.102 -86.767,-43.567 -90.273,-46.874C-90.304,-46.902 -90.341,-46.922 -90.377,-46.94C-90.382,-46.942 -90.386,-46.946 -90.39,-46.948C-90.535,-47.012 -90.71,-46.993 -90.831,-46.874C-91.016,-46.688 -91.201,-46.503 -91.387,-46.317C-91.506,-46.198 -91.525,-46.023 -91.461,-45.878C-91.458,-45.87 -91.452,-45.865 -91.449,-45.857C-91.432,-45.823 -91.414,-45.789 -91.387,-45.759C-88.501,-42.696 -87.783,-38.292 -87.958,-34.228C-88.149,-29.813 -89.369,-25.521 -89.758,-21.128C-89.891,-19.623 -89.887,-18.113 -89.757,-16.618C-90.784,-15.751 -91.75,-14.805 -92.637,-13.777C-95.235,-10.763 -97.267,-7.32 -99.771,-4.232C-102.68,-0.644 -106.694,2.722 -111.528,2.867C-111.571,2.868 -111.61,2.88 -111.648,2.893C-111.653,2.895 -111.659,2.894 -111.664,2.896C-111.812,2.953 -111.922,3.09 -111.922,3.26L-111.922,4.047C-111.922,4.216 -111.813,4.354 -111.664,4.411C-111.658,4.413 -111.65,4.412 -111.644,4.415C-111.606,4.428 -111.569,4.44 -111.528,4.441C-107.249,4.572 -103.583,7.256 -100.812,10.323C-98.129,13.291 -96.096,16.772 -93.616,19.9C-92.457,21.362 -91.18,22.696 -89.785,23.887C-89.865,24.821 -89.894,25.76 -89.863,26.701C-89.72,31.114 -88.539,35.401 -88.087,39.78C-87.616,44.357 -88.08,49.561 -91.387,53.067C-91.416,53.098 -91.436,53.135 -91.453,53.171C-91.455,53.176 -91.459,53.179 -91.461,53.184C-91.526,53.329 -91.506,53.504 -91.387,53.624C-91.201,53.81 -91.016,53.995 -90.831,54.18C-90.711,54.3 -90.536,54.32 -90.391,54.255C-90.384,54.252 -90.378,54.246 -90.372,54.244C-90.337,54.226 -90.302,54.208 -90.273,54.18C-87.209,51.295 -82.805,50.577 -78.742,50.752C-74.327,50.943 -70.035,52.162 -65.641,52.551C-64.136,52.685 -62.626,52.681 -61.131,52.551C-60.264,53.577 -59.319,54.543 -58.29,55.43C-55.277,58.03 -51.833,60.061 -48.746,62.564C-45.157,65.473 -41.792,69.488 -41.647,74.322C-41.646,74.365 -41.634,74.404 -41.621,74.443C-41.619,74.448 -41.619,74.452 -41.617,74.457C-41.56,74.606 -41.423,74.716 -41.253,74.716L-40.466,74.716C-40.297,74.716 -40.16,74.607 -40.103,74.458C-40.1,74.451 -40.1,74.443 -40.098,74.435C-40.086,74.399 -40.074,74.362 -40.072,74.322C-39.941,70.042 -37.257,66.376 -34.191,63.606C-31.222,60.923 -27.742,58.89 -24.613,56.41C-23.152,55.25 -21.817,53.974 -20.626,52.579C-19.693,52.659 -18.753,52.688 -17.812,52.657C-13.4,52.514 -9.112,51.332 -4.734,50.881C-0.157,50.41 5.048,50.874 8.554,54.18C8.584,54.209 8.621,54.229 8.658,54.247C8.663,54.249 8.666,54.253 8.67,54.255C8.816,54.32 8.991,54.3 9.111,54.18C9.296,53.995 9.482,53.81 9.667,53.624C9.787,53.505 9.806,53.33 9.742,53.185C9.739,53.177 9.733,53.172 9.73,53.165C9.712,53.131 9.695,53.096 9.667,53.067C6.781,50.003 6.063,45.599 6.239,41.536C6.429,37.12 7.649,32.828 8.038,28.435C8.171,26.93 8.167,25.42 8.037,23.925C9.064,23.058 10.03,22.113 10.917,21.084C13.516,18.071 15.547,14.627 18.051,11.539C20.96,7.952 24.974,4.585 29.809,4.441C29.851,4.44 29.89,4.427 29.929,4.414C29.934,4.412 29.939,4.413 29.944,4.411C30.092,4.354 30.203,4.217 30.203,4.047L30.203,3.26C30.203,3.091 30.093,2.953 29.945,2.897" style="fill:white;fill-rule:nonzero;"/>
        </g>
    </g>
</svg>
